<svg t="1732004712333" class="icon" viewBox="0 0 1024 1024" version="1.1" xmlns="http://www.w3.org/2000/svg" p-id="7564" width="200" height="200">
	<path d="M757.061818 316.738095v390.533818c0 30.021818-27.019636 54.909905-63.926458 54.909905-26.389178 0-56.47104-10.817862-75.304727-34.465047L366.778182 423.875956v283.325906c0.250182 30.71232-23.517091 54.919913-52.978502 54.919913h-3.122269A54.789818 54.789818 0 0 1 256.698182 707.271913V316.71808c0-30.021818 26.329135-54.909905 62.665542-54.909905 27.019636 0 57.741964 10.877905 76.555636 34.465047L636.974545 600.124044V316.738095C645.480727 286.085818 670.498909 261.818182 699.389905 261.818182h3.132277c30.081862 0 53.919185 25.518545 54.539636 54.919913zM937.192727 261.818182L506.88 11.636364 76.567273 261.818182v500.363636l430.312727 250.181818 430.312727-250.181818V261.818182z" fill="#00C143" p-id="7565">
	</path>
</svg>
